<svg xmlns="http://www.w3.org/2000/svg"
	xmlns:xlink="http://www.w3.org/1999/xlink" width="32.562" height="40.322" viewBox="0 0 32.562 40.322">
	<defs>
		<clipPath id="clip-path">
			<path id="Path_19" data-name="Path 19" d="M37.244,19.41,26.39,30.268,37.244,41.126h-12.4l-4.655-4.655-6.2-6.2L24.841,19.41ZM24.841.8,4.682,20.963l6.2,6.2L37.244.8h-12.4Z"/>
		</clipPath>
		<linearGradient id="linear-gradient" x1="-89.486" y1="-632.996" x2="-87.478" y2="-635.974" gradientUnits="objectBoundingBox">
			<stop offset="0" stop-color="#1a237e" stop-opacity="0.4"/>
			<stop offset="1" stop-color="#1a237e" stop-opacity="0"/>
		</linearGradient>
		<radialGradient id="radial-gradient" cx="-27.315" cy="-8.995" r="0.047" gradientTransform="translate(-57.238) scale(1.238 1)" gradientUnits="objectBoundingBox">
			<stop offset="0" stop-color="#fff" stop-opacity="0.102"/>
			<stop offset="1" stop-color="#fff" stop-opacity="0"/>
		</radialGradient>
	</defs>
	<g id="flutter" transform="translate(-4.121 -8.966)">
		<g id="Group_17" data-name="Group 17" transform="translate(-0.561 8.162)">
			<g id="Group_8" data-name="Group 8">
				<g id="Group_7" data-name="Group 7" clip-path="url(#clip-path)">
					<path id="Path_18" data-name="Path 18" d="M20.186,36.471,37.244,19.41h-12.4L13.987,30.268Z" fill="#39cefd"/>
				</g>
			</g>
			<g id="Group_10" data-name="Group 10">
				<g id="Group_9" data-name="Group 9" clip-path="url(#clip-path)">
					<path id="Path_20" data-name="Path 20" d="M4.682,20.963,24.841.8h12.4L10.885,27.166Z" fill="#39cefd"/>
				</g>
			</g>
			<g id="Group_12" data-name="Group 12">
				<g id="Group_11" data-name="Group 11" clip-path="url(#clip-path)">
					<path id="Path_22" data-name="Path 22" d="M24.841,41.122h12.4L26.39,30.268l-6.2,6.2Z" fill="#03569b"/>
				</g>
			</g>
			<g id="Group_14" data-name="Group 14">
				<g id="Group_13" data-name="Group 13" clip-path="url(#clip-path)">
					<path id="Path_24" data-name="Path 24" d="M26.39,30.268l-6.2,6.2,9.2-3.187Z" fill="url(#linear-gradient)"/>
				</g>
			</g>
			<g id="Group_16" data-name="Group 16">
				<g id="Group_15" data-name="Group 15" clip-path="url(#clip-path)">
					<path id="Path_26" data-name="Path 26" d="M13.987,30.264l6.2-6.2,6.2,6.2-6.2,6.207Z" fill="#16b9fd"/>
				</g>
			</g>
			<path id="Path_28" data-name="Path 28" d="M37.244,19.41,26.39,30.268,37.244,41.126h-12.4l-4.655-4.655-6.2-6.2L24.841,19.41ZM24.841.8,4.682,20.963l6.2,6.2L37.244.8h-12.4Z" fill="url(#radial-gradient)"/>
		</g>
	</g>
</svg>